<svg width="15" height="15" viewBox="0 0 15 15" fill="none" xmlns="http://www.w3.org/2000/svg">
<path d="M4.70837 6.35288L7.5 3.56125L10.2931 6.35431L11.9174 4.72994L7.5 0.3125L3.084 4.7285L4.70837 6.35288ZM0.3125 7.5L1.93688 5.87562L3.56125 7.5L1.93688 9.12438L0.3125 7.5ZM4.70837 8.64713L7.5 11.4387L10.2931 8.64569L11.9174 10.2693L7.5 14.6875L3.084 10.2715L3.08184 10.2693L4.70837 8.64713ZM11.4387 7.5L13.0631 5.87562L14.6875 7.5L13.0631 9.12438L11.4387 7.5ZM9.14738 7.49856H9.14881V7.5L7.5 9.14881L5.85334 7.50287L5.85047 7.5L5.85334 7.49784L6.14156 7.20891L6.28172 7.06875L7.5 5.85119L9.14809 7.49928L9.14738 7.49856Z" fill="white"/>
</svg>
